# xmcd
# Track frame offsets:
# 150
# 14855
# 32835
# 50194
# 66266
# 79659
# 95693
# 108956
# 125222
# 140310
# 154255
# 170025
# 185829
# 201802
#
# Disc length: 2894 seconds
# Revision: 0
# Processed by: cddbd v1.5.2PL0 Copyright (c) Steve Scherf et al.
# Submitted via: VisiTrax 2.10.3.257 - For more info visit www.synapsa.com
#
DISCID=d70b4c0e
DTITLE=Zididada - Take It All
DYEAR=2008
DGENRE=Rock
TTITLE0=If I Was A Girl
TTITLE1=Redhanded
TTITLE2=Hostage
TTITLE3=Rather Be Lonely
TTITLE4=Korean Librarians
TTITLE5=It's All Me
TTITLE6=Karaoke
TTITLE7=Take It All
TTITLE8=Looking For A Lover
TTITLE9=Daydreamer
TTITLE10=Hot Ass
TTITLE11=Love Yourself
TTITLE12=Woman Woman
TTITLE13=Sunzet
EXTD=
EXTT0=
EXTT1=
EXTT2=
EXTT3=
EXTT4=
EXTT5=
EXTT6=
EXTT7=
EXTT8=
EXTT9=
EXTT10=
EXTT11=
EXTT12=
EXTT13=
PLAYORDER=
